HIERARCHY
ROOT Hips
{
  OFFSET -35.4901 99.2528 17.4586
  CHANNELS 6 Xposition Yposition Zposition Zrotation Xrotation Yrotation
  JOINT LeftUpLeg
  {
    OFFSET 8.64259 1.95398 -2.38835
    CHANNELS 3 Zrotation Xrotation Yrotation
    JOINT LeftLeg
    {
      OFFSET 43.7702 0 0
      CHANNELS 3 Zrotation Xrotation Yrotation
      JOINT LeftFoot
      {
        OFFSET 40.6238 0 0
        CHANNELS 3 Zrotation Xrotation Yrotation
        JOINT LeftToeBase
        {
          OFFSET 12.7242 0 0
          CHANNELS 3 Zrotation Xrotation Yrotation
          End Site
          {
            OFFSET 0 0 0
          }
        }
      }
    }
  }
  JOINT RightUpLeg
  {
    OFFSET -8.2249 1.95398 -2.59336
    CHANNELS 3 Zrotation Xrotation Yrotation
    JOINT RightLeg
    {
      OFFSET 43.5653 0 0
      CHANNELS 3 Zrotation Xrotation Yrotation
      JOINT RightFoot
      {
        OFFSET 40.6238 0 0
        CHANNELS 3 Zrotation Xrotation Yrotation
        JOINT RightToeBase
        {
          OFFSET 12.7242 0 0
          CHANNELS 3 Zrotation Xrotation Yrotation
          End Site
          {
            OFFSET 0 0 0
          }
        }
      }
    }
  }
  JOINT Spine
  {
    OFFSET 0.165834 0.87714 6.61349
    CHANNELS 3 Zrotation Xrotation Yrotation
    JOINT Spine1
    {
      OFFSET 7.38963 1.71661e-005 0
      CHANNELS 3 Zrotation Xrotation Yrotation
      JOINT Spine2
      {
        OFFSET 11.9445 1.14441e-005 0
        CHANNELS 3 Zrotation Xrotation Yrotation
        JOINT Spine3
        {
          OFFSET 14.7254 4.19617e-005 0
          CHANNELS 3 Zrotation Xrotation Yrotation
          JOINT Spine4
          {
            OFFSET 10.9679 0 0
            CHANNELS 3 Zrotation Xrotation Yrotation
            JOINT RightShoulder
            {
              OFFSET 2.46616 -1.6653 3.69651
              CHANNELS 3 Zrotation Xrotation Yrotation
              JOINT RightArm
              {
                OFFSET 13.0012 0 0
                CHANNELS 3 Zrotation Xrotation Yrotation
                JOINT RightForeArm
                {
                  OFFSET 28.7848 1.52588e-005 0
                  CHANNELS 3 Zrotation Xrotation Yrotation
                  JOINT RightHand
                  {
                    OFFSET 26.5688 1.52588e-005 0
                    CHANNELS 3 Zrotation Xrotation Yrotation
                    End Site
                    {
                      OFFSET 0 0 0
                    }
                  }
                }
              }
            }
            JOINT LeftShoulder
            {
              OFFSET 2.38034 -1.29275 -3.7523
              CHANNELS 3 Zrotation Xrotation Yrotation
              JOINT LeftArm
              {
                OFFSET 16.3182 6.10351e-005 0
                CHANNELS 3 Zrotation Xrotation Yrotation
                JOINT LeftForeArm
                {
                  OFFSET 27.0901 0 0
                  CHANNELS 3 Zrotation Xrotation Yrotation
                  JOINT LeftHand
                  {
                    OFFSET 24.5451 1.52588e-005 0
                    CHANNELS 3 Zrotation Xrotation Yrotation
                    End Site
                    {
                      OFFSET 0 0 0
                    }
                  }
                }
              }
            }
            JOINT Neck
            {
              OFFSET 5.0226 -0.0266342 0
              CHANNELS 3 Zrotation Xrotation Yrotation
              JOINT Head
              {
                OFFSET 6.69364 2.86102e-005 0
                CHANNELS 3 Zrotation Xrotation Yrotation
                End Site
                {
                  OFFSET 0 0 0
                }
              }
            }
          }
        }
      }
    }
  }
}
MOTION
Frames:	7
Frame Time:	0.0416667
-239.061 66.9747 228.574 101.524 47.179 86.325 -154.252 72.4966 64.3049 -7.06871 13.3457 -0.925767 13.7579 9.54743 -21.1474 131.611 -22.4422 -44.6267 -166.324 -55.9753 110.342 -8.56628 -9.05392 -0.136968 121.853 -13.8531 1.36988 23.5439 -2.37286 6.2947 -0.764343 8.02138 -90.5175 10.8244 -1.76088 -0.865056 -0.845582 -1.79723 -0.786709 -23.3852 -1.41948 -1.35431 -3.37254 -1.41949 -1.35432 89.0162 -33.6098 -107.296 40.3417 -3.76176 2.40614 5.72863 -42.6034 -9.98429 -58.1309 7.6423 -23.1982 -85.2719 -51.2733 85.9992 -20.8272 12.9267 -32.7145 2.86184 11.251 -5.87207 3.55532 -0.000610128 -2.63345 3.13373 -1.21176 -8.49903 -4.57821 0.248214 -1.1325 
-233.909 67.9587 223.622 103.734 46.4222 85.5773 -157.725 71.1395 68.1143 -7.93042 20.0983 0.437711 14.0061 4.34994 -20.2832 131.499 -22.8152 -45.5952 -163.462 -59.0374 112.913 -8.03605 -9.31272 0.0258998 119.278 -15.3152 1.09259 20.2106 -1.87956 5.15314 -0.588562 7.99855 -90.5853 10.8696 -1.44214 -1.02912 -0.80086 -1.48603 -0.96466 -23.3367 -1.06622 -1.41496 -3.32405 -1.06621 -1.41495 89.3636 -33.4837 -106.69 41.6496 -5.16522 2.89471 5.67878 -20.2224 -9.44375 -20.9182 -1.70746 -0.491103 -85.5118 -49.7445 85.4318 -24.494 15.1546 -25.3288 -0.426136 9.67064 0.485398 -0.250126 -0.151568 -7.03168 2.40313 -1.30339 -8.76214 -5.38903 0.143201 -0.756241 
-228.183 68.673 218.416 103.833 47.8402 85.5093 -156.856 68.2923 66.1477 -3.85199 22.4979 0.385587 11.7403 2.79198 -21.2602 131.567 -23.2997 -46.6155 -163.154 -60.7364 114.511 -8.12799 -7.916 0.131538 121.882 -15.8263 2.43278 21.1681 -1.92398 5.25084 -0.397397 7.94163 -90.6411 10.9817 -1.088 -1.17296 -0.689265 -1.13858 -1.12396 -23.222 -0.685216 -1.44569 -3.20934 -0.685218 -1.44569 89.4676 -32.8489 -106.726 41.1794 -5.49572 1.39746 4.57645 -22.7836 -12.5042 -22.1423 0.266908 -9.50741 -85.376 -50.0301 85.6715 -26.2895 13.4711 -15.6756 0.867542 12.5164 -1.37249 -0.814262 -0.0909512 -5.31665 2.36981 -2.12128 -7.40742 -4.13878 -0.893708 -0.9546 
-224.289 69.8308 214.752 105.006 47.8391 82.6415 -159.66 66.6161 67.9751 -2.48264 13.9354 0.229423 11.8591 11.5616 -23.0056 132.248 -23.2485 -45.7122 -170.728 -63.7145 106.989 -8.56415 -9.57155 -0.186433 123.24 -15.8109 3.21176 22.1782 -1.73873 4.81673 0.139529 8.04424 -90.3304 10.7902 0.125396 -0.667635 -0.880947 0.0958854 -0.672523 -23.415 0.320241 -0.599083 -3.40235 0.320261 -0.59909 89.2713 -33.9492 -106.696 38.73 -6.7907 -2.23969 3.19713 -22.9636 -15.1671 -26.4432 -0.410017 -5.59632 -84.9834 -47.4327 85.9185 -29.9281 9.9628 -7.99676 3.49041 8.34604 -6.06394 -0.00511114 -0.132749 -6.57936 1.05306 -3.75112 -9.84472 -2.40189 -2.24439 0.31107 
-223.48 71.3134 213.591 103.729 46.1341 80.553 -164.501 68.254 72.5073 -3.6633 -0.0820726 0.136167 14.6208 19.1181 -25.2524 133.19 -22.8228 -43.72 173.651 -63.9857 89.9317 -8.41247 -13.7705 -1.22641 123.014 -15.6861 3.44647 21.6993 -1.6118 4.54019 0.597736 8.09755 -90.0615 10.6803 1.16199 -0.228351 -0.990117 1.15081 -0.279277 -23.5294 1.17689 0.131486 -3.51678 1.1769 0.131479 90.4011 -30.761 -105.684 37.802 -6.54777 -8.48741 3.05865 -33.7264 -15.3252 -25.1017 -0.44101 -6.92572 -84.1938 -48.7134 87.3055 -28.6266 9.7263 -3.50487 3.92892 5.90977 -10.338 -0.361701 -0.138077 -7.07872 1.81268 -4.24505 -5.95602 -3.33549 -3.24474 -1.78022 
-223.456 72.2813 212.979 102.633 45.4093 79.5475 -170.989 71.0146 78.181 -6.99309 -0.922893 -0.16482 17.3612 10.928 -24.2893 132.729 -22.2543 -42.9612 164.478 -63.3911 80.3405 -6.88722 -15.2782 -2.15374 121.802 -15.7149 2.85138 23.399 -1.64516 4.56879 0.800421 8.15337 -90.0356 10.5697 1.57775 -0.213059 -1.10031 1.56683 -0.282316 -23.6431 1.5688 0.271083 -3.63047 1.56881 0.271085 90.5111 -28.237 -106.412 35.9287 -8.60159 -13.0118 1.12579 -22.9047 -19.3658 -28.6984 -0.501031 -5.05803 -83.1846 -52.0464 89.1767 -25.6391 11.129 -1.45629 3.09736 5.24887 -11.3799 -0.634698 -0.141296 -7.76231 2.98499 -3.24544 1.73244 -3.4993 -3.4286 -5.44433 
-221.976 72.2166 210.98 102.528 44.7419 79.3688 -172.742 71.9314 80.2973 -8.54755 -0.684794 -1.35474 18.6029 4.80688 -22.9957 132.177 -21.6897 -42.2922 157.753 -63.4724 73.2429 -6.40844 -17.3994 -2.13791 121.891 -17.0966 2.99717 24.7279 -1.2591 3.58732 0.969451 8.22751 -90.1822 10.4234 1.84776 -0.524036 -1.24637 1.82292 -0.604884 -23.792 1.91979 0.0557187 -3.77934 1.91979 0.0557143 89.5497 -28.55 -108.235 32.028 -7.68627 -15.4346 -0.675961 -23.9739 -21.8968 -28.1255 -0.0599215 -7.33405 -82.2015 -54.6662 90.837 -25.6934 10.6878 -0.465849 3.02579 5.0671 -10.8461 -0.23431 -0.142273 -7.1484 3.69553 -2.68571 5.48547 -2.90955 -3.53559 -5.27596 
